<!DOCTYPE svg PUBLIC "-//W3C//DTD SVG 1.1//EN" "http://www.w3.org/Graphics/SVG/1.1/DTD/svg11.dtd">
<!-- Uploaded to: SVG Repo, www.svgrepo.com, Transformed by: SVG Repo Mixer Tools -->
<svg fill="#fa584d" height="800px" width="800px" version="1.1" id="Layer_1" xmlns="http://www.w3.org/2000/svg" xmlns:xlink="http://www.w3.org/1999/xlink" viewBox="0 0 512 512" xml:space="preserve">
<g id="SVGRepo_bgCarrier" stroke-width="0"/>
<g id="SVGRepo_tracerCarrier" stroke-linecap="round" stroke-linejoin="round"/>
<g id="SVGRepo_iconCarrier"> <g> <g> <path d="M59.921,281.719c-1.701-7.932-0.213-16.053,4.194-22.866c0.745-1.152,1.563-2.238,2.438-3.264 c-0.815-3.292-2.012-6.434-3.534-9.381l-34.544-15.216c-4.372-1.926-8.024-4.804-10.838-8.277h-5.17 C5.582,222.714,0,228.295,0,235.181s5.582,12.467,12.467,12.467h12.084c10.111,0,18.335,8.226,18.335,18.337v126.786 c0,6.885,5.582,12.467,12.467,12.467s12.467-5.582,12.467-12.467v-74.245L59.921,281.719z"/> </g> </g> <g> <g> <path d="M125.295,239.171c-2.346,6.871-7.019,12.407-13.136,15.877c3.482,3.852,6.019,8.604,7.161,13.921l2.907,13.543h3.914 l2.484-12.907c1.164-6.053,4.101-11.388,8.19-15.542C131.586,250.631,127.468,245.538,125.295,239.171z"/> </g> </g> <g> <g> <path d="M167.986,123.854c-10.599,0-74.74,0-85.383,0c-14.304,0-27.587,8.308-33.839,21.167 c-8.826,18.151-19.367,42.002-23.884,53.292c-3.299,8.241,0.528,17.615,8.652,21.194l57.652,25.395 c0.129,0.057,0.26,0.095,0.39,0.148c8.325,3.42,17.751-0.471,21.323-8.582c3.667-8.325-0.109-18.047-8.434-21.714L61.66,195.9 c7.381-16.957,11.668-26.453,14.329-31.802c0.61-1.226,1.983-1.87,3.314-1.556c1.333,0.314,2.273,1.503,2.273,2.871v25.547 l27.948,12.31c7.738,3.409,13.243,9.788,15.77,17.207c2.528-7.42,8.032-13.798,15.77-17.207l27.755-12.226v-26.028 c0-1.366,0.937-2.552,2.267-2.868s2.702,0.322,3.315,1.541c2.662,5.294,6.973,14.852,14.527,32.209l-42.805,18.854 c-8.325,3.667-12.101,13.388-8.434,21.714c3.6,8.174,13.134,12.062,21.496,8.516c0.072-0.031,0.146-0.051,0.217-0.082 c22.283-9.816,17.503-7.709,39.9-17.575v-86.679C192.397,130.312,180.591,123.854,167.986,123.854z"/> </g> </g> <g> <g> <circle cx="125.375" cy="78.837" r="34.137"/> </g> </g> <g> <g> <path d="M107.583,381.272l10.832-56.297L107.44,273.84c-2.111-9.835-11.796-16.112-21.643-13.994 c-9.841,2.112-16.107,11.803-13.994,21.643l23.471,109.346c1.805,8.408,9.226,14.401,17.839,14.401 C108.027,398.44,105.925,389.885,107.583,381.272z"/> </g> </g> <g> <g> <path d="M441.079,0.492H230.659c-7.077,0-12.813,5.737-12.813,12.814c0,12.107,0,283.923,0,283.923 c0,7.077,5.737,12.814,12.813,12.814h54.195l-32.222,100.154c-2.911,9.049,2.064,18.744,11.114,21.655 c9.046,2.912,18.743-2.064,21.655-11.114l35.613-110.697h29.435v-25.627H243.472V26.118h0.001h184.792v1.501 c9.566,1.667,18.319,5.717,25.627,11.52V13.305C453.892,6.228,448.156,0.492,441.079,0.492z"/> </g> </g> <g> <g> <path d="M468.207,134.461c-53.824,0-67.334,0-101.292,0c-11.221,0-21.995,4.889-29.391,13.508l-21.857,25.474l-13.625-40.917 l9.468-42.105c1.405-6.249-2.522-12.453-8.77-13.859c-6.248-1.408-12.454,2.521-13.859,8.77l-6.792,30.204 c-1.632,0.083-3.28,0.366-4.906,0.908c-9.698,3.23-14.94,13.708-11.713,23.404l25.402,76.288 c4.511,13.547,22.192,17.172,31.602,6.205c24.328-28.351,34.927-41.057,39.997-46.68c1.074-1.191,2.771-1.598,4.268-1.023 c1.497,0.576,2.485,2.014,2.485,3.618l0.009,311.044c0,12.265,9.943,22.206,22.206,22.206c12.264,0,22.206-9.943,22.206-22.206 V311.804h9.587v177.498c0,12.265,9.943,22.206,22.206,22.206s22.206-9.943,22.206-22.206c0-83.068-0.382-224.878-0.402-311.011 c0-2.105,1.679-3.825,3.783-3.874c2.104-0.05,3.865,1.59,3.962,3.692c0,0.001,0,0.001,0,0.001l-0.126,135.952 c-0.01,10.221,8.267,18.514,18.488,18.522c0.007,0,0.012,0,0.018,0c10.212,0,18.497-8.274,18.505-18.488L512,178.034 C511.879,154.008,492.233,134.461,468.207,134.461z"/> </g> </g> <g> <g> <path d="M418.436,45.531c-21.898,0-39.419,18.325-38.303,40.327c1.035,20.417,17.947,36.379,38.303,36.379 c20.524,0,37.276-16.119,38.303-36.379C457.856,63.857,440.335,45.531,418.436,45.531z"/> </g> </g> <g> <g> <path d="M199.305,241.48c-7.281,3.439-13.272,8.961-17.308,15.787c5.591,6.887,8.028,15.837,6.281,24.92l-11.789,61.266v50.339 c0,6.32,5.123,11.444,11.444,11.444c6.32,0,11.444-5.124,11.444-11.444L199.305,241.48z"/> </g> </g> <g> <g> <path d="M161.893,259.767c-9.896-1.903-19.44,4.578-21.339,14.452l-21.041,109.346c-2.156,11.204,6.418,21.671,17.916,21.671 c8.562,0,16.199-6.064,17.877-14.784l21.041-109.347C178.247,271.223,171.778,261.669,161.893,259.767z"/> </g> </g> </g>
</svg>